<svg xmlns="http://www.w3.org/2000/svg" xmlns:xlink="http://www.w3.org/1999/xlink" width="400" zoomAndPan="magnify" viewBox="0 0 300 299.999988" height="400" preserveAspectRatio="xMidYMid meet" version="1.0"><path fill="#000000" d="M 139.105469 138.523438 L 141.601562 137.832031 C 160.097656 132.300781 178.1875 125.675781 195.882812 117.957031 C 213.902344 110.886719 230.550781 101.40625 245.824219 89.515625 C 249.839844 86.324219 253.613281 82.867188 257.136719 79.140625 C 260.660156 75.410156 263.90625 71.453125 266.871094 67.269531 C 269.832031 63.082031 272.484375 58.707031 274.828125 54.140625 C 277.171875 49.578125 279.179688 44.871094 280.855469 40.023438 C 282.304688 36.808594 283.359375 33.464844 284.011719 30 C 259.734375 63.15625 163.488281 66.589844 163.488281 66.589844 L 186.203125 45.78125 C 178.003906 45.808594 169.8125 46.152344 161.636719 46.8125 C 153.460938 47.476562 145.324219 48.453125 137.226562 49.746094 C 129.125 51.039062 121.085938 52.644531 113.113281 54.558594 C 105.136719 56.472656 97.246094 58.695312 89.445312 61.222656 C 81.640625 63.75 73.945312 66.574219 66.363281 69.699219 C 58.777344 72.820312 51.328125 76.234375 44.007812 79.933594 C 36.6875 83.636719 29.519531 87.613281 22.507812 91.871094 C 15.5 96.128906 8.664062 100.648438 2 105.4375 C 11.03125 106.402344 19.929688 108.066406 28.695312 110.429688 C 37.464844 112.796875 45.992188 115.828125 54.285156 119.53125 C 62.574219 123.238281 70.527344 127.566406 78.136719 132.519531 C 85.746094 137.472656 92.925781 142.988281 99.667969 149.066406 C 112.710938 145.042969 125.996094 142.132812 139.140625 138.664062 M 290.082031 135.265625 C 290.082031 135.265625 201.257812 128.328125 109.035156 158.191406 C 121.414062 171.113281 131.566406 185.601562 139.484375 201.648438 C 187.972656 174.628906 255.191406 140.121094 290.082031 135.265625 M 145.554688 215.488281 C 151.332031 230.300781 154.996094 245.617188 156.550781 261.441406 L 241.074219 174.492188 Z M 189.949219 258.113281 L 189.949219 257.175781 C 189.925781 256.792969 189.800781 256.445312 189.570312 256.136719 C 189.378906 255.820312 189.101562 255.660156 188.738281 255.648438 L 189.292969 255.441406 C 189.519531 255.285156 189.691406 255.085938 189.808594 254.835938 C 189.925781 254.589844 189.972656 254.328125 189.949219 254.054688 C 189.984375 253.679688 189.902344 253.328125 189.703125 253.007812 C 189.503906 252.6875 189.226562 252.457031 188.875 252.320312 C 188.296875 252.085938 187.695312 251.96875 187.070312 251.972656 L 184.714844 251.972656 L 184.714844 258.5625 L 185.824219 258.5625 L 185.824219 256.171875 L 186.863281 256.171875 C 187.269531 256.132812 187.664062 256.191406 188.042969 256.34375 C 188.257812 256.496094 188.414062 256.695312 188.511719 256.941406 C 188.613281 257.183594 188.640625 257.4375 188.597656 257.695312 L 188.597656 258.667969 L 189.847656 258.667969 Z M 186.203125 253.015625 L 187.035156 253.015625 C 187.492188 252.980469 187.933594 253.050781 188.355469 253.222656 C 188.65625 253.421875 188.78125 253.699219 188.738281 254.054688 C 188.75 254.253906 188.699219 254.4375 188.589844 254.601562 C 188.480469 254.769531 188.332031 254.886719 188.148438 254.957031 C 187.800781 255.011719 187.453125 255.011719 187.105469 254.957031 L 186.238281 254.957031 L 186.238281 253.015625 Z M 186.203125 253.015625 " fill-opacity="1" fill-rule="nonzero"/><path fill="#000000" d="M 191.511719 251.175781 C 191.234375 250.902344 190.933594 250.65625 190.609375 250.441406 C 190.285156 250.226562 189.941406 250.046875 189.582031 249.898438 C 189.222656 249.75 188.851562 249.636719 188.472656 249.5625 C 188.089844 249.488281 187.703125 249.449219 187.3125 249.449219 C 186.925781 249.449219 186.539062 249.488281 186.15625 249.5625 C 185.777344 249.636719 185.40625 249.75 185.046875 249.898438 C 184.6875 250.046875 184.34375 250.226562 184.019531 250.441406 C 183.695312 250.65625 183.394531 250.902344 183.117188 251.175781 C 182.550781 251.726562 182.117188 252.367188 181.816406 253.09375 C 181.515625 253.824219 181.371094 254.582031 181.382812 255.371094 C 181.375 256.160156 181.519531 256.917969 181.824219 257.648438 C 182.125 258.375 182.554688 259.015625 183.117188 259.570312 C 183.394531 259.84375 183.691406 260.089844 184.015625 260.308594 C 184.339844 260.523438 184.683594 260.707031 185.042969 260.855469 C 185.402344 261.007812 185.773438 261.117188 186.15625 261.195312 C 186.539062 261.269531 186.925781 261.308594 187.3125 261.308594 C 187.703125 261.308594 188.089844 261.269531 188.472656 261.195312 C 188.855469 261.117188 189.226562 261.007812 189.585938 260.855469 C 189.945312 260.707031 190.289062 260.523438 190.613281 260.308594 C 190.9375 260.089844 191.234375 259.84375 191.511719 259.570312 C 191.785156 259.292969 192.027344 258.992188 192.246094 258.667969 C 192.460938 258.34375 192.640625 258 192.789062 257.640625 C 192.9375 257.28125 193.046875 256.910156 193.125 256.527344 C 193.199219 256.148438 193.238281 255.761719 193.238281 255.371094 C 193.238281 254.984375 193.199219 254.597656 193.125 254.214844 C 193.046875 253.835938 192.9375 253.464844 192.789062 253.101562 C 192.640625 252.742188 192.460938 252.402344 192.246094 252.078125 C 192.027344 251.753906 191.785156 251.453125 191.511719 251.175781 M 187.3125 260.296875 C 186.660156 260.304688 186.03125 260.183594 185.429688 259.929688 C 184.824219 259.675781 184.296875 259.3125 183.847656 258.839844 C 183.621094 258.609375 183.421875 258.363281 183.246094 258.09375 C 183.070312 257.824219 182.921875 257.542969 182.800781 257.246094 C 182.675781 256.949219 182.585938 256.640625 182.523438 256.328125 C 182.460938 256.011719 182.433594 255.695312 182.433594 255.371094 C 182.433594 255.050781 182.460938 254.734375 182.523438 254.417969 C 182.585938 254.101562 182.675781 253.796875 182.800781 253.5 C 182.921875 253.203125 183.070312 252.917969 183.246094 252.652344 C 183.421875 252.382812 183.621094 252.132812 183.847656 251.902344 C 184.070312 251.671875 184.320312 251.46875 184.585938 251.285156 C 184.851562 251.105469 185.136719 250.949219 185.433594 250.824219 C 185.730469 250.699219 186.039062 250.605469 186.355469 250.542969 C 186.671875 250.476562 186.992188 250.445312 187.3125 250.445312 C 187.636719 250.445312 187.957031 250.476562 188.273438 250.542969 C 188.589844 250.605469 188.898438 250.699219 189.195312 250.824219 C 189.492188 250.949219 189.777344 251.105469 190.042969 251.285156 C 190.308594 251.46875 190.558594 251.671875 190.78125 251.902344 C 191.007812 252.132812 191.207031 252.382812 191.382812 252.652344 C 191.558594 252.917969 191.707031 253.203125 191.828125 253.5 C 191.953125 253.796875 192.042969 254.101562 192.105469 254.417969 C 192.167969 254.734375 192.195312 255.050781 192.195312 255.371094 C 192.195312 255.695312 192.167969 256.011719 192.105469 256.328125 C 192.042969 256.640625 191.953125 256.949219 191.828125 257.246094 C 191.707031 257.542969 191.558594 257.824219 191.382812 258.09375 C 191.207031 258.363281 191.007812 258.609375 190.78125 258.839844 C 190.332031 259.3125 189.804688 259.675781 189.199219 259.929688 C 188.597656 260.183594 187.96875 260.304688 187.3125 260.296875 " fill-opacity="1" fill-rule="nonzero"/></svg>